<svg version="1.1" viewBox="0.0 0.0 757.5590551181102 167.22834645669292" fill="none" stroke="none" stroke-linecap="square" stroke-miterlimit="10" xmlns:xlink="http://www.w3.org/1999/xlink" xmlns="http://www.w3.org/2000/svg"><clipPath id="p.0"><path d="m0 0l757.5591 0l0 167.22835l-757.5591 0l0 -167.22835z" clip-rule="nonzero"/></clipPath><g clip-path="url(#p.0)"><path fill="#000000" fill-opacity="0.0" d="m0 0l757.5591 0l0 167.22835l-757.5591 0z" fill-rule="evenodd"/><path fill="#000000" d="m222.47244 35.305775l0 0.1679802l-0.17060852 1.1810989l-0.33595276 2.1916046l-0.6745453 2.1916008l-1.1811066 3.54068l-2.0236206 5.057743l-2.8661346 0l1.0131226 -2.8661423l1.3490753 -2.8661423l2.020996 -4.3832016l2.698166 -4.047241l0.17060852 -0.1679802zm399.95273 -4.889765l0.33862305 0.6745415l-0.67456055 2.5275593l-1.1810913 3.5406837l-3.876648 8.6010475l-7.9265137 14.501312l-5.9002686 9.4409485l2.3596191 -5.7322845l9.950134 -22.763783l4.3831787 -7.755905l1.8530273 -2.5275574l0.6744995 -0.5065632zm-405.51703 21.918634l-3.2047272 7.2519684l-5.0577393 9.440945l-1.0131226 2.3622055l-1.5170746 2.020996l-0.16796875 -0.16797638l0.33595276 -0.67453766l0.8451538 -2.527565l0.16796875 -0.67453766l0.33596802 -0.8451462l1.8556366 -4.551178l2.530182 -6.574806l1.010498 -2.698162l1.010498 -2.3622055zm408.2152 18.716534l-1.010498 0.6745453l-0.8425293 2.359581l-0.50653076 1.5196838l0.16796875 2.359581l0.50653076 0.33857727l0.5065918 -0.17060089l0.8425293 -0.67453766l0.6744995 -1.010498l0.33599854 -1.1811066l0.338562 -2.0236206l-0.16796875 -0.84252167l0 -0.16797638l0 -0.84252167l-0.8451538 -0.3385849zm-468.41205 0l-1.010498 0.6745453l-0.8451538 2.359581l-0.33595276 1.5196838l0 2.5275574l0.5065613 0.3385849l0.50393677 -0.16798401l0.8451538 -0.84513855l0.67453 -1.010498l0.33596802 -1.1811066l0.16796875 -2.0236206l0 -0.84252167l0.17060852 -0.16797638l-0.17060852 -0.84252167l-0.84251404 -0.3385849zm424.57214 0l-1.010498 0.6745453l-0.8425293 2.359581l-0.338562 1.5196838l0 2.5275574l0.67456055 0.3385849l0.50653076 -0.16798401l0.67456055 -0.84513855l0.67456055 -1.010498l0.50653076 -1.1811066l0.16796875 -2.0236206l-0.16796875 -0.84252167l0.16796875 -0.16797638l-0.16796875 -0.84252167l-0.8451538 -0.3385849zm54.4646 -39.118107l0 2.1916008l-0.67456055 2.1916008l-2.3621826 6.577427l-9.94751 19.727036l-6.7454224 11.803146l-2.6981812 4.3832016l-0.50390625 0.84252167l0 -0.33595276l2.6981812 -7.4199524l4.0446167 -9.947506l5.060364 -11.80315l5.9002686 -11.80315l3.5406494 -4.889763l1.6876831 -1.5170593zm-454.08136 43.165356l-5.0577545 6.070862l-5.734909 5.564308l-0.50393677 -0.3385849l-0.67453 -1.1810989l0.16796875 -0.6745453l0.6745453 -1.1784744l0.8425293 -1.0131226l2.3621979 -2.1916046l5.2257233 -3.54068l2.698166 -1.5170593zm-84.81365 -44.850395l0.5065613 0.84251976l-0.6745453 4.047243l-1.8556366 6.5748024l-4.3832016 12.477692l-10.960632 23.942257l-6.574806 11.296585l0.16798401 -1.3464508l0.84251404 -2.698166l1.1811066 -4.215225l4.551178 -14.501312l9.443573 -24.7874l4.2152176 -8.262466l2.359581 -3.0341206l0.8451462 -0.33595848zm235.04987 0l0.3359375 0.84251976l-0.67453 4.047243l-1.8530273 6.5748024l-4.385803 12.477692l-10.958008 23.942257l-6.577423 11.296585l0.338562 -1.3464508l0.67456055 -2.698166l1.1784668 -4.215225l4.7217712 -14.501312l9.443573 -24.7874l4.047241 -8.262466l2.3595886 -3.0341206l0.8425293 -0.33595848zm-65.76117 32.540684l0.33859253 0.84251785l-0.8425293 3.0367432l-1.6876526 4.889763l-4.047241 8.766411l-5.7322845 9.10498l-1.3490906 1.1994781l0 0l0 -0.35433197l4.0472565 -11.128609l5.0577393 -10.624672l3.0367432 -4.889763l1.1784668 -0.84251785zm96.95538 20.233593l0.16799927 0.17060852l-0.16799927 0.50393677l-1.3490906 2.3621979l-3.54068 3.8766403l-2.0236206 1.517067l0 -0.16798401l1.3490906 -2.5275574l4.21521 -5.060364l1.3490906 -0.6745453zm-126.80052 -8.937004l1.5196838 0.17060089l2.0236206 1.5170593l0.8425293 3.2021027l-0.5065613 4.889763l-0.8425293 3.3727036l-1.0131226 3.3727036l-1.6850281 3.2047272l-3.5406952 0.50393677l-4.21521 0.5065613l-0.16798401 0l0.16798401 -0.6745453l1.1784668 -3.202095l0.17060852 -0.6745453l-0.5065613 -0.3385849l-0.5065613 0l-0.8425293 0.3385849l-1.1810913 2.5275574l-0.8425293 1.6876678l-0.33595276 0.67453766l-1.8556366 0.16798401l-3.7007904 0l0.8346405 -1.8556442l0.16798401 -0.6745453l0 -0.67453766l0.16798401 -0.3359604l-0.16798401 -0.16797638l-0.33596802 -0.17060089l-0.67453 0l-0.17060852 0.17060089l-0.16798401 0.16797638l-0.16796875 0.3359604l-0.5065613 0.8451462l-0.33596802 0.84252167l-0.40156555 0.72177887l0 0l-1.286087 -0.72177887l-0.50393677 -1.8556442l0.33595276 -1.349083l1.0131226 -2.698166l4.215225 -5.5643005l5.5643005 -4.889763l5.7322845 -3.0341263l2.5275574 -0.33857727zm404.50922 12.309708l0.8425293 0.16798401l0.84246826 2.530182l0 2.8661423l-2.5275269 3.2047195l-5.060364 5.057747l-1.6850586 0.5065613l-0.16796875 0l-0.50653076 -0.5065613l0.50653076 -2.1916046l0.45410156 -1.3622055l0.8949585 -1.1679764l1.1785278 -2.5275574l0.17059326 -0.5065613l-0.22570801 -0.29921722l0 0l0.9002075 -1.7244034l3.2021484 -3.708664l1.1810913 -0.3385849zm17.70343 17.874016l0 0.3359604l-0.33599854 0.67453766l0 -0.5065613l0.16796875 -0.3359604l0.16802979 -0.16797638zm-0.8425293 1.6850433l0 0.5065613l-0.33599854 0.33595276l0 -0.16797638l0 -0.3359604l0.33599854 -0.33857727zm-422.04465 -9.94751l-1.6850281 2.8661423l-1.8556519 3.0341187l-3.8766327 4.7217865l-2.1916046 1.1810989l-0.5065613 -0.16797638l0.16798401 -2.530182l1.3490753 -5.564308l0.84251404 -2.530182l4.3858337 -0.50393677l3.3700714 -0.5065613zm-51.76378 -5.396324l4.215225 0.67453766l2.86615 1.349083l0.5065613 1.1811066l-0.16798401 0.84251404l-0.6745453 1.349083l-3.7112732 3.708664l-3.034134 2.530182l-2.530182 2.0236206l-8.259842 4.7217865l-9.950134 4.3832016l-8.936996 2.698166l-3.0341187 0.33595276l-1.1811066 0l-1.178482 -1.010498l0.16798401 -0.84252167l0.5065613 -1.1810989l3.708664 -4.047241l3.372696 -2.8661423l4.7217865 -3.5406876l12.813644 -8.262466l7.4199524 -3.7086563l2.3595734 -0.3385849zm451.71918 -60.362206l-1.1785278 0.16797829l-2.3621826 2.0236225l-4.047241 5.3936996l-8.43042 16.863518l-4.5512085 10.622051l-3.3726807 8.766403l-3.7086792 11.29921l-2.6981812 9.2729645l-2.3621826 12.645668l-0.16796875 6.5774307l0.50653076 2.1916046l0.5065918 0.33595276l0.50390625 0l1.0131226 -0.16797638l1.3491211 -0.84252167l0.50390625 -0.67453766l0 -0.6745453l-0.67456055 -0.33857727l-0.84246826 -1.178482l0.338562 -5.396324l2.359558 -11.128609l1.5170898 -6.0708694l0.8425293 -3.202095l0.338562 -1.5196838l0.8425293 -1.178482l3.3726807 -4.5538025l13.826782 -24.110237l5.9002686 -12.648293l1.34906 -3.0341225l1.0131226 -3.2020988l0.67456055 -2.3622055l-0.16796875 -2.698162l-1.1810913 -1.0105l-1.0131226 -0.16797829zm99.48291 65.08399l4.385803 0.67453766l2.86615 1.349083l0.5065918 1.1810989l-0.17059326 0.84252167l-0.5039673 1.349083l-3.7113037 3.7086563l-3.2020874 2.5301895l-2.3621826 2.191597l-8.430481 4.7217865l-9.94751 4.215225l-8.936951 2.6955338l-3.0341187 0.3385849l-1.1811523 0l-1.1810913 -1.0131226l0.16796875 -0.84252167l0.5065918 -1.349083l3.7086792 -3.8766403l3.3726807 -2.8661423l4.8897705 -3.54068l12.648254 -8.09449l7.4173584 -3.8792648l2.1915894 -0.33595276zm-110.94751 -68.456696l-1.1810913 0.16797829l-3.3726807 3.0341206l-1.8530273 2.5301857l-4.215271 7.0813637l-8.433044 18.041996l-3.2020874 8.09449l-2.1915894 5.732277l-2.5302124 7.417328l-6.4067993 8.769028l-7.252014 8.262466l-2.6954956 2.8661423l-4.047241 2.8661423l-1.3491211 0.3385849l-0.6744995 -0.17060852l-0.8425293 -1.010498l0 -3.0341187l0.8425293 -3.2047272l1.6849976 -4.7217865l1.6876831 -4.551178l0.16796875 -0.5065613l-0.50653076 -0.67453766l-0.5039673 0l-1.0131226 0.16797638l-0.6744995 1.0131226l-1.1811523 3.2021027l-1.010498 3.3727036l-1.34906 5.0577393l0 5.564308l1.34906 1.8556366l1.3491211 0.16798401l1.6849976 -0.3359604l5.060364 -3.54068l3.5407104 -3.54068l5.3936768 -6.238846l4.8897705 -6.5774307l-1.1784668 3.7112885l-3.0367432 10.115486l-2.6981812 13.826767l-0.50390625 7.249344l0.50390625 2.530182l0.5065918 0.3359604l0.67456055 0l0.84246826 -0.16797638l1.5197144 -1.010498l0.50390625 -0.6745453l0 -0.84251404l-0.6744995 -0.3385849l-0.67456055 -1.1811066l0.5065918 -5.900261l2.5301514 -12.477692l1.6850586 -6.745407l2.86615 -10.283463l1.8556519 -5.5643005l7.08136 -10.454071l10.622009 -18.041996l5.2283325 -10.624672l1.3491211 -4.0446167l0.8425293 -3.2047253l-0.16802979 -2.8661423l-0.6744995 -0.84251976zm63.566956 42.490814l-2.6981812 0.67453766l-2.359558 1.5170593l-4.215271 3.708664l-7.7558594 7.9265137l-3.5407104 4.3832016l0.16796875 -1.349083l0 -4.047249l-0.8425293 -2.191597l-0.6744995 -0.3385849l-0.33862305 0l-1.34906 0.3385849l-2.1915894 2.530182l-0.8425293 1.5170593l-3.204712 5.2257233l-4.7191772 8.262466l-2.8687744 3.3727036l-1.010498 0.3359604l-0.50653076 -0.16797638l-0.33599854 -1.8556442l0.33599854 -4.5511856l0.338562 -2.8661423l0.3359375 -1.3490753l0.33862305 -3.2047272l-0.5065918 -1.5170593l-0.6744995 -0.16798401l-1.3491211 0.5065613l-2.1915894 2.527565l-0.338562 0.33857727l-0.33599854 -0.16797638l0.16802979 -0.5065613l-0.33599854 -2.3622055l-1.1810913 -2.0236206l-1.010498 -0.16797638l-0.8451538 0.16797638l-1.34906 0.3385849l-2.86615 2.6981583l-4.21521 6.0708694l-1.0629883 3.0734863l-2.984253 4.1758575l-3.7086792 3.54068l-3.7086792 2.0236206l-1.8556519 0.16798401l-1.1810913 0l-1.1784668 -1.349083l-0.17059326 -3.708664l1.0131226 -3.3727036l1.5170288 -4.551178l1.3491211 -4.215225l1.1810913 -3.3727036l0 -0.5065613l-0.5065918 -0.67453766l-0.50653076 0l-1.010498 0.16797638l-0.5065918 1.0131226l-1.8555908 5.900261l-1.8530273 6.0708694l-0.67456055 7.755905l1.1784668 2.359581l1.5197144 0.67453766l1.010498 0.17060852l0.338562 0l1.8530273 -0.3385849l4.8897705 -2.8661423l4.7218018 -4.55381l0.10760498 -0.13910675l0.39892578 1.994751l1.010498 0.6745453l0.67456055 0.16797638l2.0236206 -0.50393677l4.553772 -3.7112885l6.2388916 -7.755905l1.5170288 -1.8556442l-0.67456055 3.2047272l-0.6744995 5.564308l0.3359375 2.6981583l0.17059326 1.1811066l1.1784668 1.5170593l1.0131226 0l1.010498 -0.16798401l3.0367432 -2.3621979l1.6850586 -2.359581l5.2283325 -8.43045l5.0577393 -7.587929l-0.50653076 5.2257233l-1.1810913 5.0603714l-1.8530273 2.8661423l-5.564331 9.104988l-1.6876221 4.047241l-0.33599854 1.6850357l0.5065918 2.0236282l1.010498 0.33595276l1.5170288 -0.67453766l2.86615 -3.370079l3.7113037 -8.09449l1.6850586 -4.889763l0.50653076 -1.6876602l1.6850586 -3.0341263l1.1810913 -1.1810989l5.7323 -6.910759l8.094482 -8.262474l3.876648 -3.0367432l1.0131226 -0.16797638l0.3359375 0l0.338562 1.0131226l-0.84246826 4.551178l-1.8556519 6.745407l-2.6981812 10.28347l-0.8425293 6.4094467l0.67456055 1.5170593l0.8425293 0.3359604l1.8555908 -0.50393677l4.7191772 -4.215225l5.2283325 -5.734909l4.7218018 -4.3832016l1.8530273 -0.67453766l0.5065918 0.16797638l0.6744995 1.349083l0.33862305 3.54068l0.16796875 6.238846l1.34906 3.54068l1.6850586 1.349083l1.1810913 0.17060089l1.6850586 -0.17060089l4.047241 -2.0236206l5.902893 -4.3832016l2.1915894 -1.6850433l1.5170288 -1.1810989l0.2835083 -0.7060394l0 0l1.908081 0.8740158l3.7086792 0.3385849l0.8451538 0l0.3359375 0.3359604l-8.766357 5.396324l-14.501343 9.611549l-5.2283325 4.721779l-2.1915894 2.8661423l-0.67456055 1.178482l-0.16796875 1.1810989l0.8425293 2.1916046l1.010498 0.84252167l1.5196533 0.17060089l1.6850586 0l3.3726807 -0.17060089l7.419983 -1.6850433l7.585266 -3.2047272l7.5879517 -4.2152176l3.5406494 -2.1916046l4.7218018 -3.202095l5.060364 -4.55381l1.8530273 -2.6981583l0.5065918 -1.1811066l0.16796875 -1.1784744l-0.5065918 -2.0236282l-1.8530273 -1.5170593l-3.3726807 -1.1810989l-2.359558 -0.3359604l3.5406494 -1.5196838l8.934387 -3.54068l2.8687744 -0.50393677l0.8425293 0.16797638l0.6744995 -0.16797638l0.33599854 -0.5065613l0.17059326 -0.3385849l-1.0131226 -0.84252167l-1.010498 -0.16797638l-1.0131226 0.16797638l-3.2020874 0.5065613l-10.286133 4.047249l-4.553772 2.3595734l-3.3727417 -0.5065613l-6.0682373 -0.67453766l-1.8555908 -1.010498l-0.33862305 -1.0131226l0 -0.6745453l0.67456055 -1.1784744l1.0131226 -1.0131226l1.5170288 -1.6850433l7.419983 -5.22834l2.6981812 -0.84252167l0.84246826 0.3385849l0.33599854 0.33595276l0.6744995 -0.33595276l0.5065918 -1.1811066l0.16796875 -0.67453766l-0.50390625 -0.6745453l-0.5065918 0l-1.8556519 0.3385849l-5.56427 2.8661423l-2.6981812 1.8530197l-2.6981812 2.0236206l-3.2020874 3.54068l-0.67456055 1.349083l-0.16796875 1.1811066l1.1784668 1.8556366l0.87402344 0.3989563l0 0l-0.36743164 0.10498047l-1.010498 0.6745453l-2.3621826 1.8556442l-5.0578003 4.047241l-3.204712 1.6850433l-1.1784668 0.16797638l-1.0131226 0l-1.34906 -1.349083l-1.010498 -3.708664l-0.33862305 -6.070862l-0.84246826 -3.708664l-1.1811523 -1.349083l-0.84246826 -0.16797638l-1.1811523 0.16797638l-2.359558 1.1811066l-4.047241 3.202095l-7.5879517 8.09449l-2.359558 1.8556442l-0.16796875 -0.17060089l0 -0.6719208l1.6849976 -7.0839844l2.5302124 -9.272972l1.5170898 -5.396324l0.3359375 -5.3936996l-1.1784668 -1.8556442l-1.0131226 -0.16797638zm-620.67194 -58.34121l-1.6850357 0.16797829l-3.8792686 1.0131235l-5.900261 3.2020998l-8.09449 7.4199467l-8.430447 10.115486l-8.094486 12.309711l-7.587927 13.658794l-6.7427826 14.330708l-5.734908 14.501312l-2.1916008 7.0813675l-2.3595805 8.430443l-2.1916008 12.141731l-0.50656176 7.417328l0.335958 6.4094467l1.5196848 5.393692l2.5275593 3.8792725l3.8792653 2.0236206l2.35958 0.33595276l2.698163 -0.16796875l6.238844 -2.0236206l6.745407 -3.5406952l7.417322 -4.8897552l11.299213 -9.104988l14.837269 -14.333336l3.427822 -3.8792648l0 0l-1.4041977 5.734909l-2.1916008 12.139107l-0.5065613 6.745407l0.16797638 0.8425293l0.5065613 0.33857727l0.6745415 0l0.6745453 -0.16798401l0.33595276 -0.84513855l0.17060852 -0.6745453l0.16797638 -0.67453766l0.16797638 -1.010498l3.3727036 -8.262466l7.755905 -15.850395l4.55381 -7.5853043l4.047241 -6.4094467l7.9238815 -9.608925l3.8792725 -3.2047272l2.3595734 -1.0131226l1.010498 -0.16797638l0.8451462 0.16797638l1.178482 0.8451462l0.33857727 3.0341187l-2.530182 11.296593l-2.6981583 11.63517l-0.84252167 3.0341187l-0.5065613 4.889763l0.5065613 3.0367432l1.6850357 1.6850433l1.1811066 0l1.8556442 -0.16797638l4.3832016 -2.698166l5.5643005 -5.228348l4.55381 -5.816269l0 0l-0.6745453 2.4461899l-1.1810989 5.7322845l0.33595276 3.0341187l0.5065689 1.0131226l0.5065613 0.50393677l0.67453766 0l0.67453766 -0.16797638l0.5065613 -0.5065613l0 -0.3359604l-0.17060089 -0.16797638l0 -0.3385849l0 -0.16797638l1.1810989 -2.359581l7.0813675 -10.624672l9.950134 -12.813644l6.7427826 -7.587929l3.54068 -3.0341187l1.0131226 -0.5065613l1.010498 1.8556366l0.84251404 3.8766403l1.1811066 1.6876678l1.0131226 0.16797638l1.8530273 -0.33857727l0.67453 -1.010498l0.16798401 -0.3385849l-2.1916046 0l-0.84251404 -1.010498l-0.33595276 -2.1916046l-0.17060852 -1.349083l-0.50393677 -1.1810989l-1.1811066 -1.5170593l-1.0131226 -0.16798401l-1.3464508 0.3359604l-3.5433044 2.1916046l-6.238846 6.238846l-13.656174 18.041992l-6.0708694 9.104988l0 0l1.0131226 -6.238846l1.8530197 -6.068245l0.3175888 -0.95012665l0 0l1.370079 -1.9160156l0 -0.33857727l0 -0.6745453l-0.36483002 -0.0892334l0 0l1.5433044 -4.6325455l1.6876678 -3.370079l0.33595276 0l0.17060852 -0.8451462l0.67191315 -2.698166l0.3385849 -2.359581l-0.6745453 -0.16797638l-0.84251404 0.3359604l-2.1916046 4.385826l-3.3727036 9.947502l-0.280838 0.8713913l0 0l-4.1023636 5.3674545l-7.083992 8.43045l-4.551178 3.7086563l-2.0236206 0.5065613l-0.5065613 -0.16797638l-0.5065613 -2.0236206l0.67453766 -6.0708694l1.6876678 -7.587921l2.191597 -8.091866l0.84252167 -10.792648l-1.010498 -3.2021027l-1.5170593 -1.1811066l-1.0131226 -0.16797638l-2.1916046 0.3359604l-4.7217865 2.8661423l-5.2257233 5.0577393l-5.060364 6.5774307l-7.249344 11.464569l-7.587929 14.501312l-2.191597 5.0577393l2.0236206 -11.97113l2.8661423 -11.632545l0.3359604 -1.1810989l0.5065613 -0.84252167l3.54068 -4.047241l7.0813675 -12.309715l6.745407 -15.005249l5.732277 -14.839893l2.0236282 -6.406826l1.0131226 -3.3727036l0.50393677 -5.3936996l-1.178482 -2.3622055l-1.349083 -0.33595657l-1.0131226 0.33595657l-2.359581 2.3622055l-4.3832016 7.0813637l-6.4094467 15.175854l-6.5747986 18.545929l-3.0341263 9.611549l-3.2047195 10.790031l-1.8923874 7.7191544l0 0l-0.4671936 0.37532806l-4.8897667 5.396332l-10.286087 10.1154785l-5.228348 4.8897705l-5.3936996 4.721779l-9.275593 7.2493515l-7.7559032 4.3858185l-6.0708675 2.1916046l-2.5275583 0.16798401l-2.3622046 -0.16798401l-3.708662 -2.1916046l-2.1916008 -3.8792572l-1.1811023 -5.564308l0.16797876 -10.286087l3.2047243 -16.354332l2.5301838 -8.598427l1.6850395 -5.9028854l2.1916008 -5.564308l3.3727036 -8.598427l11.128609 -21.750652l10.622047 -16.188976l7.2519684 -9.272966l7.417324 -6.9133854l5.228344 -3.2020998l3.3727036 -1.0131235l1.5170593 -0.16797924l0.3359604 0l0.8451462 2.0236225l1.010498 4.889764l-0.3359604 9.104986l-4.7217827 21.244095l-3.3727036 12.816273l0.33595657 0l0.8451462 -0.3385811l1.8530159 -3.5406837l1.0131264 -2.8661423l2.0236206 -8.094486l3.2021027 -16.018375l1.3490753 -8.091862l0.16798401 -5.396326l-1.010498 -5.2257214l-1.349083 -2.0236225l-1.010498 -0.5065613zm510.56696 0.6745405l-1.8556519 0.16797924l-5.0577393 2.1916008l-2.86615 2.1942253l0.16796875 0.33595848l0.67456055 0l1.5170288 -0.33595848l4.553833 -2.3622046l2.359558 -0.5065613l1.34906 0.33858204l1.0131226 1.010499l1.3491211 2.3622046l0.8425293 7.249344l-1.1811523 9.611547l-2.69812 11.63517l-1.8530273 6.238846l-4.21521 12.981625l-10.624695 26.472443l-11.464539 23.774277l-7.419983 12.816277l-4.047241 5.3936996l-1.5170288 1.5196838l-1.5170898 1.5170593l-2.5301514 1.5170593l-1.010498 0.16798401l-1.0131226 -0.16798401l-1.5170898 -2.1915894l-0.50653076 -2.1916046l-0.5039673 -1.0131226l-0.17059326 -5.9002686l1.34906 -14.333328l3.0367432 -23.774284l1.1784668 -15.343826l0 -6.745407l-0.671875 -1.6850433l-0.67456055 -1.0131226l-2.0236206 -1.1784782l-1.34906 0l-2.3622437 0.3359604l-6.2388306 3.3726997l-10.958008 9.779533l-24.787384 28.832016l-12.984253 16.863518l-6.5747986 8.598427l-5.902893 6.913391l-2.5275574 2.0236206l-0.8425293 0.16796875l-0.67453 -0.16796875l-0.8451538 -1.8556519l-0.50393677 -5.2257233l1.5170593 -11.467186l3.2020874 -14.330711l2.3622131 -7.926506l2.3595886 -7.4173203l5.396332 -15.343834l6.5747986 -15.175854l7.251953 -14.162731l3.876648 -6.238846l0 0.3359604l0.33859253 0l1.5170593 -1.6850395l1.34906 -3.8792648l0.33596802 -1.1811028l-0.33596802 -0.33595657l-1.010498 0.16797638l-2.3621826 2.5301857l-4.383209 7.249344l-9.94751 21.07611l-5.396332 12.141739l-4.3858337 11.464561l-4.3831787 13.658798l-2.1916199 6.9133835l-3.0341187 13.320206l-1.0131226 10.960632l1.3490906 5.3937073l1.8556519 2.1942139l1.1810913 0.50393677l2.020996 -0.50393677l3.5433044 -2.530182l5.9002686 -7.2519684l6.913391 -8.766403l14.16272 -18.377953l22.089233 -25.797897l10.118103 -8.937004l6.2388306 -3.7112885l2.86615 -1.010498l0.67456055 0.5065613l1.010498 2.6981583l0.16796875 7.0813675l-0.8425293 7.755905l-2.1915894 14.162727l-2.359558 28.496063l0.16796875 9.947502l0.8425293 3.5406952l0.6744995 0.33857727l0.16802979 0l0.6744995 0.6745453l1.8556519 0.84251404l0.8425293 0.16798401l1.1810913 -0.16798401l2.3596191 -1.010498l4.047241 -3.2047272l5.9002686 -7.419937l6.2388306 -10.28347l9.782166 -18.716537l11.800476 -28.834648l4.553833 -14.162727l2.6981812 -9.104988l3.3726807 -16.018372l0.67456055 -9.443569l-0.5065918 -4.71916l-1.5170288 -3.5406818l-2.3622437 -1.687664l-1.6849976 -0.16797924zm-245.83994 15.850394l-1.0131226 0.33595657l-2.5275574 2.3622055l-4.2178345 7.0813637l-6.5747986 15.175854l-6.5747986 18.545929l-3.0367432 9.611549l-2.1023865 7.0813675l-0.9317322 0l-3.7086792 0.3385849l-7.251953 1.6850357l-3.54068 1.349083l-1.3490906 0.67453766l-1.5170593 0.3359604l0 -0.16797638l0.67453 -1.010498l2.1916199 -3.0367508l2.530182 -3.54068l4.21521 -7.4173203l1.6850281 -4.047249l0.5065613 -2.530182l-0.5065613 -2.359581l-1.010498 -0.84252167l-0.8451233 0l-2.020996 0.16798401l-5.902893 3.3727036l-4.2152405 3.0341187l-3.0341187 2.698166l-6.577423 6.238838l-9.94751 11.296593l-12.309708 17.19947l-10.454071 17.196861l-3.7086487 7.587921l2.0236206 -7.417328l5.0577393 -17.031494l3.2047272 -10.454063l2.3595734 -6.574806l2.698166 -2.8661423l4.7217712 -6.238846l4.0472717 -6.5774307l3.54068 -7.08136l1.34906 -3.708664l0.8425293 -3.3727036l0 -3.3727036l-0.67453 -1.010498l-0.5065613 -0.1706047l-0.8425293 0.1706047l-1.8556519 1.349083l-3.54068 4.551178l-6.4068146 12.141731l-5.574814 14.296593l0 0l-4.204712 0.37270355l-4.7217865 0.50393677l-0.5065613 0l0.17059326 -0.50393677l0.6745453 -1.8556442l1.6850433 -4.3832016l0.67453 -2.698166l0.33596802 -5.228348l-1.010498 -4.2152176l-3.0341187 -2.359581l-2.3622131 -0.3385849l-0.84251404 0l-0.8425293 0.17060852l-2.8661346 0.67453766l-6.238846 3.54068l-5.734909 5.3936996l-4.383194 5.902893l-1.1811066 2.8661423l-0.33595276 1.5170593l0.16796875 2.530182l1.6876678 1.8530197l1.27034 0.49606323l-2.4514465 4.900261l-3.708664 6.745407l-3.8792572 6.9133835l-3.8792725 6.238846l-2.020996 2.698166l-3.0367432 3.0341187l-1.010498 0.16797638l-1.0131226 -0.16797638l-1.010498 -2.359581l-0.16798401 -2.3622055l0.50393677 -6.070862l0.8451538 -6.068245l1.3464508 -7.2519684l1.6876678 -7.0813675l1.6850433 -6.9133835l1.3490753 -5.2257233l1.0131226 -3.54068l0.33595276 -1.349083l0 -0.17060089l3.0367584 -4.215225l5.225708 -8.766403l2.3595886 -4.7217865l2.3621979 -4.551178l2.0236206 -4.38583l0.16798401 0l16.692917 0.1706047l15.51181 0.1679802l16.524933 0.33595657l9.443573 0.1679802l0.67453 0l0.50393677 -0.3359604l0.33859253 -0.5065613l0.16796875 -0.50393677l0 -0.3385811l0 -0.5065613l-0.3359375 -0.1679802l-0.33859253 -0.1679802l-15.51181 -0.16797638l-21.414703 -0.3385849l-10.792648 -0.16797638l-10.454071 -0.3385849l2.0236206 -4.889763l1.5196838 -4.3832016l0.8425293 -2.8661423l0.33595276 -2.8661423l-0.16798401 -1.0131226l-0.67453 -1.010498l-0.6745453 -0.1679802l-1.010498 0.33595657l-0.6745453 0.1679802l-1.8556366 1.8556442l-3.54068 6.406822l-3.2047272 7.2519684l-0.33596802 0.50393677l-0.16796875 0.6745415l-17.538055 -0.1679802l-33.721786 0l-0.33859253 0.1679802l-0.33595276 0.1706047l-0.33857727 0.33595657l-0.16798401 0.5065613l-0.16798401 0.3359604l0.16798401 0.3385811l0.33857727 0.3359604l4.215225 0l3.708664 0.17060089l9.611557 0l15.005249 0.1679802l18.38057 0.1679802l-5.5643005 14.501308l-4.821518 14.934387l-0.57481384 -0.09711456l-0.5065613 0l-0.50393677 0.16797638l-0.17060852 0l-3.3700714 0.5065613l-9.950134 4.047249l-4.551178 2.191597l-4.047241 -0.33595276l-4.5538025 -0.5065613l5.902878 -5.902893l6.238846 -6.5747986l0.8425293 -1.8556442l0 -0.67453766l-0.33596802 -0.50393677l-0.5065613 0l-1.8556366 0.33595276l-5.9002686 3.2047272l-2.698166 1.8530197l-2.8661346 2.191597l-3.2047272 3.3727036l-0.5065613 1.349083l-0.16798401 1.1810989l0.8425293 1.8556442l1.0131226 0.6745453l-5.396332 5.0577393l-7.755905 6.406822l-4.215225 2.359581l-1.5170593 0.3385849l-0.67453 -0.16797638l-0.8451538 -0.8451462l-0.16798401 -2.6955414l0.8425293 -3.5433044l1.8556366 -5.057747l1.6850433 -4.551178l0 -1.0131226l-0.84251404 -0.16797638l-1.178482 0.16797638l-0.5065613 1.0131226l-1.3490753 3.708664l-1.3490906 4.047241l-0.84251404 2.698166l-0.5065613 4.3832016l0.16796875 3.0341187l1.3490906 1.5170593l1.0131226 0.17060852l1.8530121 -0.17060852l4.5538025 -2.6955338l8.937012 -7.083992l6.574814 -6.2362213l4.21521 0.67191315l2.3622131 0.5065613l-8.769028 5.396332l-14.501312 9.779526l-5.2257233 4.551178l-2.1942291 2.8687668l-0.50393677 1.349083l-0.33857727 1.1784744l0.84251404 2.1916046l0.84513855 0.8451462l1.6850433 0.16797638l1.5170593 0l2.86615 -0.16797638l6.238846 -1.349083l9.950119 -3.7112885l12.477692 -7.4173203l6.913391 -5.734909l2.6955414 -3.370079l0.6745453 -1.349083l0.33857727 -1.1810989l-0.6745453 -2.0236206l-1.8556366 -1.6850433l-3.3727112 -1.0131226l-2.3595734 -0.50393677l3.372696 -1.5196838l9.104996 -3.54068l2.9317474 -0.4881897l0 0l-3.27034 11.280838l-2.5275574 10.958008l-0.84251404 4.2152176l-1.1811066 8.769028l0 4.383209l0 3.2047195l1.3490906 2.698166l1.3490753 0.84251404l1.010498 0.16798401l1.5170593 -0.16798401l3.3727112 -2.3595734l1.8556366 -2.1916046l4.047241 -5.228348l3.3727112 -5.7322845l3.54068 -6.070862l3.0341187 -5.900261l2.2021027 -4.55381l4.036743 0l1.8556366 -0.16797638l-0.67453 2.0236206l-0.8425293 3.0341187l-0.84513855 4.215225l0.17060852 1.8556442l0.50393677 0.5065613l0.84251404 0.67191315l1.3490753 0.17060852l1.3490906 -0.17060852l3.2047272 -2.359581l4.383194 -5.5643005l2.1916046 -3.708664l1.3490753 -2.3622055l3.8792725 -0.50393677l6.160095 -0.6561661l0 0l-1.4383087 3.6902924l-4.215225 13.658791l-4.5538025 14.837273l-6.574814 25.45932l-0.33857727 3.5433044l0.33857727 0.33595276l0.50393677 0.16798401l0.6745453 -0.16798401l1.3490753 -1.3490753l0.33859253 -0.8425293l0 -1.0131226l0.16796875 -0.67453l1.5170746 -4.551193l4.5538025 -10.454056l6.0682373 -11.803154l7.2519684 -12.477692l8.43045 -12.309715l9.10498 -11.296585l9.611542 -9.779526l9.611572 -7.587929l4.88974 -2.6981583l0.50393677 0.67453766l0.17062378 2.0236206l-0.33859253 1.349083l-1.6850281 3.8792648l-5.902893 9.2729645l-2.6981812 3.708664l-2.1915894 2.6981583l-2.3595886 2.698166l-1.1810913 0.67453766l-4.047241 2.698166l-6.238861 5.7322845l-1.010498 1.8556442l0.16799927 0.67453766l0.67453 0.84252167l0.5065613 0l1.3490906 -0.3359604l3.7086487 -2.530182l6.070862 -5.9028854l2.6981812 -3.0341263l4.88974 -2.191597l9.94751 -3.3727036l4.5538025 -0.5065613l1.7716675 -0.07611847l0 0l-0.4225769 1.4252014l-4.21521 17.19947l-2.1942444 12.139107l-0.50393677 6.745407l0.16799927 0.8425293l0.67453 0.33857727l0.5065613 0l0.8425293 -0.16798401l0.3359375 -0.84513855l0 -0.6745453l0.17062378 -0.67453766l0.3359375 -1.010498l3.2047424 -8.262466l7.75589 -15.850395l4.551178 -7.5853043l4.2152405 -6.4094467l7.9265137 -9.608925l3.7086487 -3.2047272l2.3622131 -1.0131226l1.1784668 -0.16797638l0.8425293 0.16797638l1.0131226 0.8451462l0.33596802 3.0341187l-2.3595886 11.296593l-2.6981812 11.63517l-0.8424988 3.0341187l-0.67456055 4.889763l0.67456055 3.0367432l1.6850281 1.6850433l1.1811218 0l1.6850281 -0.16797638l4.5538025 -2.698166l5.396332 -5.228348l3.1312256 -3.8923874l0 0l-0.09710693 0.35170746l-0.16796875 3.0367432l0.67453 2.0236206l1.6850281 1.178482l1.1811218 0l2.0236206 -0.16798401l5.7322693 -3.202095l3.3727112 -2.8687668l6.2388306 -6.406822l6.574829 -8.598427l1.1810913 -1.0131226l-0.16796875 2.6981583l-3.8792725 13.152237l-1.010498 6.238838l0.16796875 3.0341263l0.67453 1.0131226l0.33596802 0.33595276l0.5065613 0l1.0131226 -0.16797638l0.33596802 -0.5065613l0 -0.3359604l-0.16799927 -0.16797638l0 -0.3385849l0 -0.16797638l1.1811218 -2.359581l7.2493286 -10.624672l9.779541 -12.813644l6.913391 -7.587929l3.3726807 -3.0341187l1.1811218 -0.3385849l0.8425293 1.6876602l1.010498 3.8766403l1.1810913 1.8556442l1.010498 0.16798401l1.5196838 -0.3359604l1.010498 -1.1810989l0 -0.3385849l-2.1915894 0l-0.67456055 -1.010498l-0.338562 -2.1916046l-0.33596802 -1.349083l-0.33859253 -1.1810989l-1.34906 -1.5170593l-0.8425293 -0.16798401l-1.3490906 0.3359604l-3.54068 2.1916046l-6.2388306 6.238846l-13.656189 18.041992l-6.070862 9.104988l0.16796875 -2.359581l0.8425293 -4.7217865l0.8451538 -2.359581l2.020996 -6.577423l0.8451538 -3.2021027l0.8424988 -3.2047272l0.33596802 -1.5170593l-0.67453 -1.349083l-0.67456055 -0.16797638l-1.3464355 0.3359604l-3.3727112 3.3727036l-6.577423 8.430443l-5.396332 5.7322845l-2.6955566 2.3622055l-4.7217712 2.5275574l-1.6876526 0.3385849l-1.1784973 -0.16797638l-0.8451233 -2.5301895l0.67453 -2.359581l1.3490906 -4.721779l1.0131226 -0.84252167l2.359558 -1.6876678l4.8897705 -4.3832016l2.530182 -3.2047195l0.67456055 -1.5170593l0.16796875 -1.178482l-0.8425293 -1.6876602l-0.8424988 -0.16798401l-1.5196838 0.3359604l-3.876648 3.3727036l-4.047241 5.5643005l-1.5065613 2.787407l0 0l-4.0577393 5.307083l-6.913391 8.43045l-4.551178 3.7086563l-2.1942444 0.5065613l-0.50393677 -0.16797638l-0.5065613 -2.0236206l0.67456055 -6.0708694l1.8556213 -7.587921l2.0236206 -8.091866l0.8425293 -10.792648l-1.0131226 -3.2021027l-1.3490906 -1.1811066l-1.010498 -0.16797638l-2.1915894 0.3359604l-4.8897705 2.8661423l-5.060364 5.0577393l-5.0577393 6.5774307l-7.249359 11.464569l-7.75589 14.501312l-2.1942444 5.0577393l2.0236206 -11.97113l3.0367737 -11.632545l0.16796875 -1.1810989l0.5065613 -0.84252167l3.54068 -4.047241l7.2493286 -12.309715l6.7454224 -15.005249l5.5643005 -14.839893l2.1915894 -6.406826l0.8425293 -3.3727036l0.5065613 -5.3936996l-1.010498 -2.3622055l-1.3490906 -0.33595657z" fill-rule="evenodd"/></g></svg>