<svg xmlns="http://www.w3.org/2000/svg" width="379.845" height="415.443" viewBox="0 0 379.845 415.443">
  <g id="Group_6" data-name="Group 6" transform="translate(5403 5484.443)">
    <path id="Subtraction_1" data-name="Subtraction 1" d="M148,292a151.047,151.047,0,0,1-29.827-2.966,148.089,148.089,0,0,1-92.9-61.4,145.386,145.386,0,0,1-13.645-24.8,144.4,144.4,0,0,1,0-113.659,145.36,145.36,0,0,1,13.645-24.8,148.224,148.224,0,0,1,92.9-61.4,151.441,151.441,0,0,1,59.655,0,148.158,148.158,0,0,1,88.611,55.47c-9.853,7.356-19.357,14.446-28.248,21.074a112.568,112.568,0,0,0-68.017-43.245,114.595,114.595,0,0,0-45.346,0A112.626,112.626,0,0,0,54.213,83.16a110.6,110.6,0,0,0,0,124.682,112.566,112.566,0,0,0,70.614,46.894,114.6,114.6,0,0,0,45.346,0,112.646,112.646,0,0,0,66.708-41.517l28.353,21.9a148.258,148.258,0,0,1-87.407,53.911A151.066,151.066,0,0,1,148,292Z" transform="translate(-5340 -5423)"/>
    <path id="Subtraction_2" data-name="Subtraction 2" d="M209.5,415.443a212.566,212.566,0,0,1-42.222-4.225A209.2,209.2,0,0,1,16.464,288.406,205.865,205.865,0,0,1,4.256,249.362a208.444,208.444,0,0,1,0-83.814A205.1,205.1,0,0,1,35.78,91.325,209.5,209.5,0,0,1,167.279,4.2,213.649,213.649,0,0,1,209.5,0,216.791,216.791,0,0,1,359.648,60.643a214.047,214.047,0,0,1,20.2,22.422L351.337,103.8a173.092,173.092,0,0,0-41.159-38.143A175.493,175.493,0,0,0,280.312,49.8,177.857,177.857,0,0,0,247.2,39.792a184.767,184.767,0,0,0-71.468,0,179.292,179.292,0,0,0-63.47,25.87A177.169,177.169,0,0,0,85.989,86.691,174.211,174.211,0,0,0,64.314,112.21a170.666,170.666,0,0,0-16.365,29.334,168.459,168.459,0,0,0-10.343,32.47,170.8,170.8,0,0,0,0,69.826,167.3,167.3,0,0,0,10.343,32.385,169.255,169.255,0,0,0,16.365,29.213,173.01,173.01,0,0,0,21.675,25.381,176.445,176.445,0,0,0,26.269,20.889,179.005,179.005,0,0,0,30.151,15.738,181.6,181.6,0,0,0,33.319,9.927,186.517,186.517,0,0,0,71.468,0,178.8,178.8,0,0,0,33.116-9.927,175.551,175.551,0,0,0,29.866-15.738,172.114,172.114,0,0,0,41.63-38.513l26.758,20.457a215.158,215.158,0,0,1-18.918,20.869,216.765,216.765,0,0,1-107.753,56.7A215.107,215.107,0,0,1,209.5,415.443Z" transform="translate(-5403 -5484.443)"/>
  </g>
</svg>
